<?xml version="1.0" encoding="UTF-8"?>
<svg id="Lager_1" data-name="Lager 1" xmlns="http://www.w3.org/2000/svg" viewBox="0 0 673.11 490.55">
  <path d="M291.02,153.53c3.76,19.32,12.85,39.02,32.73,45.78,8.53,2.9,16.87,2.33,25.66,6.34,4.54,2.07,32.69,19.53,34.69,22.31,1.14,1.59,2.07,7.97,3.17,10.83,6.02,15.6,23.46,20.88,38.43,14.92,11.04-4.4,24.62-23.58,24.4-35.67-.19-10.61-20.84-45.77-26.9-57.18-9.5-17.87-21.13-34.75-28.21-53.79-2.14-5.75-3.42-14.62-6.2-19.8-1.92-3.59-12.75-14.93-16.25-18.75-6.2-6.75-13.25-12.77-19.5-19.49,1.29-1.38,2.81-2.53,3.82-4.16,5.42-8.76,9.13-31.06,9.47-41.57.03-1.01,1.33-1.41-.8-2.74-18.47,7.74-35.49,19.2-48.17,34.81-108.46,1.62-165.24,105.42-157.33,204.65.54,6.8,1.84,13.7,2.49,20.51,50.52,32.04,107.5,56.32,168.49,56-9.66-20.5-19.79-43.25-25.13-65.36-2.84-11.76-3.79-23.85-6.36-35.64-3.91-17.93-13.6-38.96-11.39-57.38.1-.87,1.05-6.83,2.88-4.61Z"/>
  <path d="M291.02,153.53c-1.82-2.21-2.77,3.75-2.88,4.61-2.21,18.42,7.48,39.45,11.39,57.38,2.57,11.79,3.52,23.88,6.36,35.64,5.33,22.12,15.47,44.86,25.13,65.36-60.99.33-117.98-23.95-168.49-56-.66-6.81-1.95-13.71-2.49-20.51-7.92-99.23,48.87-203.03,157.33-204.65,12.69-15.61,29.7-27.07,48.17-34.81,2.12,1.33.83,1.72.8,2.74-.34,10.51-4.05,32.81-9.47,41.57-1.01,1.64-2.53,2.78-3.82,4.16,6.24,6.71,13.3,12.74,19.5,19.49,3.5,3.82,14.33,15.15,16.25,18.75,2.77,5.18,4.06,14.05,6.2,19.8,7.07,19.04,18.71,35.92,28.21,53.79,6.07,11.41,26.71,46.57,26.9,57.18.22,12.09-13.36,31.27-24.4,35.67-14.97,5.97-32.42.68-38.43-14.92-1.1-2.86-2.03-9.23-3.17-10.83-1.99-2.79-30.15-20.24-34.69-22.31-8.79-4.01-17.13-3.44-25.66-6.34-19.88-6.76-28.97-26.46-32.73-45.78Z" style="fill: #4a3728; stroke: #1d1d1b; stroke-miterlimit: 10;"/>
  <path d="M37.99,348.62c-15.95-13.42-36.84-3.49-36.27,29.72.57,33.44,28.71,26.3,28.71,53.02,0,7.04-3.58,17.94-8.2,19.49-8.63,2.89-13.3-7.1-16.11-18.64-1.36-5.61-.96-14.58-5.6-6.37,1.39,6.81-.49,24.19,3.39,28,5.28,5.19,15.77,5.66,21.67,3.54,19.66-7.08,24.21-45.37,6.47-62.49-7.99-7.71-21.5-10.57-18.79-30.77,2.15-15.99,15.01-16.18,19.42-2.99.91,2.72,1.92,15.71,5.39,11.97,1.88-2.02-.06-20.35-.08-24.5Z" style="fill: none; stroke: #000; stroke-miterlimit: 10;"/>
  <path d="M133.17,342.9l-10.48.51c-1.83,10.55-3.3,21.35-5.33,31.81-3.86,19.94-8.03,43.88-12.76,62.94-2.08,8.38-2.05,9.2-7.7,12.42-.17,1.21.81,2.9,1.41,3.35,1.67,1.25,17.17,1.04,17.86-.48l.31-3.43c-1.61-.8-5.4-1.53-5.55-5-.05-1.19,2.75-22.05,3.12-23.22.24-.74.57-1.33,1.03-1.73,3-.35,17.12-1.85,18.57.54l4.55,26.47-5.62,1.79c-.47,10.11,6.59,5.69,10.12,5.59,4.4-.12,9.87.86,14.05.1,6.9-1.25-2.01-5.85-3.21-7.34-3.13-3.84-7.27-28.16-8.71-35.62-4.37-22.66-7.59-45.91-11.64-68.71Z" style="fill: none; stroke: #000; stroke-miterlimit: 10;"/>
  <path d="M369.38,455.64h18.89c.67,0,1.59-3.28.74-4.59l-5.87-2.36c-1.99-2.05,2.57-22.67,3.01-26.95l1.41-1.11c3.84,1.78,15.98-4.2,18.17,1.18.43,1.05,3.87,23.01,3.85,24.33l-.65,2.19-4.82,1.83-.1,4.35c3.5.62,24.83,2.6,25.88-.01,1.51-3.74-2.81-4.74-3.74-5.79-2.95-3.3-3.44-6.57-4.66-11.68-6.75-28.28-9.38-62.25-15.33-91.24-1.42-3.11-8.88-2.02-11.25-1.36-1.38,1.33-4.49,26-5.4,30.79-3.54,18.72-7.74,41.32-12.25,59.25-2.15,8.53-2.42,14.14-8.6,16.61-.74,1.44-.19,4.15.73,4.56Z" style="fill: none; stroke: #000; stroke-miterlimit: 10;"/>
  <path d="M458.42,344.22c-33.35,5.91-35.71,98.77-4.21,109.98,6.34,2.26,21.95,2.49,26.35-6.51,1.62-3.31,4.3-27.1-.33-23.16-1.93,1.64-2.91,11.85-4.89,15.87-3.69,7.48-12.88,7.86-17.95,4.15-14.4-10.53-14.42-66.5-5.71-84.1,5.72-11.55,17.6-11.47,22.85,1.12,1.96,4.7,1.65,9.53,4.06,12.63,4.72,1.41,3.25-19.54,1.98-23.51-2.07-6.49-17.98-7.21-22.16-6.47Z" style="fill: none; stroke: #000; stroke-miterlimit: 10;"/>
  <path d="M99.69,369.28c.67-6.58-.49-15.66,0-22.58l-1.05-1.69h-48.96c-.55.91-1.75,4.2-1.75,5.08v24.27l3.89-1.06c.12-15.73,6.23-19.51,14.97-19.21l.74,91.96c-.57,4.79-5.53,2.41-6.99,6.76,2.66,5.67,7.36,1.78,10.8,1.65,3.88-.15,9.85,1.04,13.31.04.92-.27,1.99-1.08,1.75-2.8-.41-2.9-6.38-1.54-6.3-5.65.24-30.08-.77-60.27,1.37-90.16,9.06-3.42,13.12,1.49,14.68,15.71,1.73,1.36,3.23.74,3.54-2.33Z" style="fill: none; stroke: #000; stroke-miterlimit: 10;"/>
  <path d="M189.13,346.29c-1.28-3.35-16.72-.12-19.85-.06-2.01.04-6.53-3.02-7.27.6-1.5,7.34,4.7,3.31,6.3,6.55.64,2.41,1.08,5.56,1.24,8.15,1.14,17.43.58,45.1.12,63.12-.17,6.77-1.23,14.1-.84,21.22-1.46,4.11-4.6,2.39-6.92,3.5l-.66,5.15c15.1,1.61,30.37-.42,45.51-.49l1.76-26.55-.84-2.2c-5.81-2.56-5.18,14.73-8.13,19.95l-17.22,1.23c-1.46-16.54-.79-34.35-.77-51.25.01-12.04-.84-24.88.06-37.09.1-1.35.43-4.6,1.06-5.3l6.45-2.3v-4.22Z" style="fill: none; stroke: #000; stroke-miterlimit: 10;"/>
  <path d="M249.03,446.61c-4.25,1.17-10.22-.86-14.69,0-1-.99-.97-2.25-1.08-3.89-.85-11.68.1-28.39.07-40.74-.03-13.38-.75-28.12-.02-41.7.66-12.4,3.23-4.41,6.28-12.42-.4-3.28-20.97-3.84-23.07-2.26-4.79,3.61,2.81,6.78,3.33,7.58.74,1.15,1.5,17.23,1.59,20.57.53,18.71-.05,37.89-.76,56.45-.17,4.49.51,10.7.04,14.74-.56,4.82-4.84,2.81-6.32,4.47-1.67,1.87-.63,7.08,1.73,6.3l43.02-1.24c.64-1,1.73-26.5,1.32-28.55-.26-1.32-.74-1.86-1.6-1.88-5.64-.13-3.2,20.77-9.83,22.59Z" style="fill: none; stroke: #000; stroke-miterlimit: 10;"/>
  <path d="M350.84,394.67c4.43-5.9,9.42-8.8,11.15-18.68,2.97-17.02-4-29.32-14.3-30.96-7.1-1.13-24.57-1.41-31.5-.07-.74.14-1.62-.04-2.11,1.11l-.31,4.58,6.84,1.39c.54.89,1.37,6.72,1.48,8.33,1.3,19.14.93,55.9.11,75.56-.1,2.46-.43,8.89-1.09,10.65-1.7,4.52-9.07-1.07-7.03,8.01.62,1.41,15.25,2.27,17.51,1,11.91.71,28.02-.22,33.16-20.98,4.77-19.24-.89-37.49-13.9-39.94Z" style="fill: none; stroke: #000; stroke-miterlimit: 10;"/>
  <path d="M515.15,346.25c-.83-1.99-24.89-1.76-25.77-.04-1.29,8.59,5,3.64,6.6,7.86.54,1.42.99,7.44,1.09,9.53.93,19.15,1.14,56.73-.12,75.53-.11,1.61-.57,6.46-.97,7.47-1.01,2.61-6.94,1.87-5.93,7.31.74,4,10.74.69,12.9.56,3.41-.2,15.2,2.81,13.26-4.54l-5.91-1.57c-3.11-9.86-1.77-20.31-1.38-30.54.16-4.12-.18-8.32,0-12.42.06-1.22-.38-3.78,1.04-2.8,3.63,2.5,8.18,14.03,10.27,19.55,3.22,8.49,6.74,24.42,11.43,30.1,4.35,5.27,15.06,8.64,19.22,1.7-2.35-3.7-4.34-2.66-6.97-6.79-9.38-14.73-12.89-43.11-24.42-56.59l24.4-43.83c-.59-1.65-1.39-1.6-2.41-1.78-3.57-.64-13.36-.73-16.86,0-1.15.24-3.92,1.72-2.79,4.61.92,2.35,5.33,1.65,6.34,5.64s-6.17,16.44-8.05,19.75c-3.07,5.43-6.84,11.82-10.85,15.22-.78-12.14-.48-24.47.44-36.54l1.05-1.69,3.79-.66.59-5.05Z" style="fill: none; stroke: #000; stroke-miterlimit: 10;"/>
  <path d="M574.68,393.56v-37.82c.44-1.1.96-1.48,1.75-1.7,1.84-.52,8.56-1.3,10.32-.86,8.4,2.1,6.74,15.15,8.9,17.27s4.22-1.59,4.22-4.55v-19.19c-3.74-4.26-9.52-.43-13.63-.48-9.44-.11-19.18-2.5-28.73-1.27-3.45.44-4.5,4.14-1.71,6.26,3.87,2.95,6.36-3.98,7.02,8.99,1.01,19.94.6,49.77,0,70.08-.15,5.06-1.28,10.33-.73,15.76l-1.15,2.66-5.74,1.45-.02,4.23,44,.8c1.4-.66,1.63-1.55,2.06-3.55s1.61-22.16,1.34-23.48l-1.67-1.95c-4.74-.63-3.57,16.92-7.12,19.06-2.04,1.23-16.73,2.61-18.28,1.15-.12-.8-.82-2.23-.82-2.63v-41.2h10.84c4.11,0,3.93,10.41,4.64,11.14l3.32.02c1.28-4.13-.09-7.78.02-11.72.11-3.85,1.99-18.26.12-20.4l-2.89.02c-1.5,13.84-9.1,11.75-16.05,11.91Z" style="fill: none; stroke: #000; stroke-miterlimit: 10;"/>
  <path d="M623.99,345.01c-4.59-1.1-10.61.81-15.39,0l-.71,1.12c-2.58,5.76,6.87,4.2,7.92,9.83.42,15.05.95,29.9.87,44.99-.06,11.12-.17,26.33-.71,37.24-.12,2.41-.54,9.85-1.86,10.54l-4.87,1.17-.98,5.75h19.24c.38,0,1.56-1.66,2.44-1.15.5-7.27-3.79-4.47-5.61-6.16-.4-.38-2.08-6.31-2.08-6.8v-63.22l2.11-1.15c7.86,20.22,17.01,38.49,26.15,57.15,1.78,3.64,8.46,20.35,10.01,21.1,2.51,1.21,4.12.73,4.43-3.67,2.11-29.21-2.15-63.94.71-93.69.83-8.66,7.1-4.06,6.95-11.91-.68.31-1.49-1.14-1.74-1.14h-18.54c-2.02,10.24,6.52,1.73,7.63,14.22.98,11.07.68,39.06.1,50.74-.12,2.33-.33,5.31-1.09,7.3-1.49-.04-11.59-20.35-13.22-23.82-6.82-14.53-13.16-31.11-19.26-46.5-.43-.67-1.96-1.82-2.48-1.94Z" style="fill: none; stroke: #000; stroke-miterlimit: 10;"/>
  <path d="M350.84,394.67c13.01,2.45,18.66,20.7,13.9,39.94-5.14,20.76-21.25,21.7-33.16,20.98-2.26,1.27-16.89.41-17.51-1-2.04-9.08,5.33-3.48,7.03-8.01.66-1.76.99-8.2,1.09-10.65.83-19.66,1.19-56.42-.11-75.56-.11-1.62-.95-7.44-1.48-8.33l-6.84-1.39.31-4.58c.49-1.15,1.37-.97,2.11-1.11,6.94-1.35,24.4-1.07,31.5.07,10.31,1.64,17.28,13.95,14.3,30.96-1.73,9.88-6.72,12.78-11.15,18.68ZM334.06,354.04v35.56c5.22,4.86,14.05-1.25,15.61-10.93,3.13-19.44-3.84-29.82-15.61-24.63ZM335.16,401.6c-1.13.7-1.03,2.2-1.14,3.76-.86,12.81.61,27.64.83,40.54l.56,1.35c11.01,4.04,19.42-6.29,18.23-24.91-1.02-16.02-10.18-19.02-18.48-20.73Z" style="fill: #4a3728; stroke: #000; stroke-miterlimit: 10;"/>
  <path d="M515.15,346.25l-.59,5.05-3.79.66-1.05,1.69c-.92,12.07-1.22,24.4-.44,36.54,4.01-3.4,7.78-9.8,10.85-15.22,1.88-3.31,9.05-15.8,8.05-19.75s-5.42-3.3-6.34-5.64c-1.13-2.89,1.64-4.37,2.79-4.61,3.5-.73,13.28-.64,16.86,0,1.02.18,1.82.13,2.41,1.78l-24.4,43.83c11.53,13.48,15.04,41.86,24.42,56.59,2.63,4.13,4.63,3.09,6.97,6.79-4.16,6.94-14.86,3.57-19.22-1.7-4.69-5.68-8.21-21.61-11.43-30.1-2.09-5.52-6.64-17.05-10.27-19.55-1.42-.98-.98,1.58-1.04,2.8-.19,4.11.15,8.3,0,12.42-.4,10.23-1.73,20.68,1.38,30.54l5.91,1.57c1.94,7.35-9.85,4.34-13.26,4.54-2.16.13-12.16,3.44-12.9-.56-1.01-5.44,4.92-4.7,5.93-7.31.39-1.01.86-5.86.97-7.47,1.25-18.81,1.05-56.38.12-75.53-.1-2.09-.55-8.11-1.09-9.53-1.59-4.22-7.89.72-6.6-7.86.88-1.72,24.95-1.95,25.77.04Z" style="fill: #4a3728; stroke: #000; stroke-miterlimit: 10;"/>
  <path d="M623.99,345.01c.53.13,2.05,1.27,2.48,1.94,6.1,15.39,12.44,31.98,19.26,46.5,1.63,3.47,11.73,23.77,13.22,23.82.76-1.99.97-4.97,1.09-7.3.58-11.68.89-39.67-.1-50.74-1.11-12.48-9.65-3.97-7.63-14.22h18.54c.25,0,1.07,1.45,1.74,1.14.15,7.85-6.12,3.25-6.95,11.91-2.86,29.75,1.4,64.48-.71,93.69-.32,4.4-1.93,4.88-4.43,3.67-1.55-.75-8.23-17.46-10.01-21.1-9.14-18.66-18.29-36.93-26.15-57.15l-2.11,1.15v63.22c0,.49,1.68,6.42,2.08,6.8,1.82,1.7,6.11-1.11,5.61,6.16-.88-.51-2.06,1.15-2.44,1.15h-19.24l.98-5.75,4.87-1.17c1.33-.69,1.75-8.12,1.86-10.54.53-10.92.65-26.12.71-37.24.08-15.09-.45-29.94-.87-44.99-1.05-5.63-10.49-4.07-7.92-9.83l.71-1.12c4.78.81,10.8-1.1,15.39,0Z" style="fill: #4a3728; stroke: #000; stroke-miterlimit: 10;"/>
  <path d="M369.38,455.64c-.92-.42-1.47-3.12-.73-4.56,6.17-2.47,6.45-8.08,8.6-16.61,4.51-17.93,8.71-40.53,12.25-59.25.91-4.79,4.02-29.46,5.4-30.79,2.38-.66,9.83-1.75,11.25,1.36,5.96,29,8.58,62.97,15.33,91.24,1.22,5.11,1.71,8.38,4.66,11.68.94,1.05,5.26,2.04,3.74,5.79-1.06,2.62-22.38.63-25.88.01l.1-4.35,4.82-1.83.65-2.19c.02-1.32-3.42-23.28-3.85-24.33-2.19-5.38-14.33.6-18.17-1.18l-1.41,1.11c-.44,4.28-5,24.9-3.01,26.95l5.87,2.36c.85,1.31-.08,4.59-.74,4.59h-18.89ZM387.92,410.49h15.74l.77-2.33c-1.8-7.97-2.7-16.49-4.43-24.49-1.97-9.11-2.42-13.85-6.16-2.57-2.93,8.82-3.96,19.92-5.92,29.4Z" style="fill: #4a3728; stroke: #000; stroke-miterlimit: 10;"/>
  <path d="M574.68,393.56c6.95-.16,14.55,1.92,16.05-11.91l2.89-.02c1.88,2.14,0,16.56-.12,20.4-.11,3.93,1.27,7.59-.02,11.72l-3.32-.02c-.71-.72-.53-11.14-4.64-11.14h-10.84v41.2c0,.4.7,1.84.82,2.63,1.55,1.45,16.24.08,18.28-1.15,3.54-2.13,2.38-19.68,7.12-19.06l1.67,1.95c.27,1.33-.89,21.39-1.34,23.48s-.65,2.89-2.06,3.55l-44-.8.02-4.23,5.74-1.45,1.15-2.66c-.55-5.43.58-10.7.73-15.76.6-20.31,1.01-50.14,0-70.08-.66-12.97-3.15-6.04-7.02-8.99-2.79-2.12-1.74-5.82,1.71-6.26,9.54-1.23,19.28,1.16,28.73,1.27,4.11.05,9.89-3.78,13.63.48v19.19c0,2.96-2.05,6.68-4.22,4.55s-.5-15.16-8.9-17.27c-1.76-.44-8.48.35-10.32.86-.78.22-1.31.59-1.75,1.7v37.82Z" style="fill: #4a3728; stroke: #000; stroke-miterlimit: 10;"/>
  <path d="M133.17,342.9c4.05,22.8,7.27,46.05,11.64,68.71,1.44,7.46,5.58,31.78,8.71,35.62,1.21,1.48,10.11,6.08,3.21,7.34-4.18.76-9.65-.22-14.05-.1-3.53.09-10.59,4.52-10.12-5.59l5.62-1.79-4.55-26.47c-1.45-2.39-15.56-.89-18.57-.54-.46.4-.79.99-1.03,1.73-.38,1.17-3.18,22.03-3.12,23.22.15,3.47,3.94,4.19,5.55,5l-.31,3.43c-.69,1.53-16.19,1.73-17.86.48-.6-.45-1.58-2.14-1.41-3.35,5.66-3.22,5.62-4.04,7.7-12.42,4.74-19.05,8.9-43,12.76-62.94,2.03-10.46,3.5-21.26,5.33-31.81l10.48-.51ZM116.83,410.49h14.69c.21,0,1.24-1.68.95-2.59l-6.9-35.79c-1.12-1.39-4.84,12.1-5.21,13.59-.84,3.42-4.26,19.87-4.31,22.46-.03,1.38.11,1.47.78,2.33Z" style="fill: #4a3728; stroke: #000; stroke-miterlimit: 10;"/>
  <path d="M37.99,348.62c.02,4.15,1.96,22.47.08,24.5-3.47,3.74-4.48-9.26-5.39-11.97-4.41-13.19-17.27-13-19.42,2.99-2.72,20.2,10.8,23.06,18.79,30.77,17.74,17.12,13.19,55.42-6.47,62.49-5.9,2.12-16.39,1.65-21.67-3.54-3.88-3.81-2-21.19-3.39-28,4.64-8.21,4.24.76,5.6,6.37,2.81,11.54,7.48,21.53,16.11,18.64,4.62-1.55,8.2-12.45,8.2-19.49,0-26.73-28.14-19.59-28.71-53.02-.57-33.21,20.32-43.14,36.27-29.72Z" style="fill: #4a3728; stroke: #000; stroke-miterlimit: 10;"/>
  <path d="M99.69,369.28c-.31,3.06-1.82,3.68-3.54,2.33-1.56-14.22-5.61-19.14-14.68-15.71-2.14,29.9-1.14,60.08-1.37,90.16-.08,4.11,5.89,2.74,6.3,5.65.24,1.72-.83,2.53-1.75,2.8-3.47,1-9.43-.18-13.31-.04-3.44.13-8.13,4.02-10.8-1.65,1.46-4.35,6.42-1.97,6.99-6.76l-.74-91.96c-8.73-.31-14.84,3.47-14.97,19.21l-3.89,1.06v-24.27c0-.88,1.2-4.17,1.75-5.08h48.96l1.05,1.69c-.49,6.92.67,15.99,0,22.58Z" style="fill: #4a3728; stroke: #000; stroke-miterlimit: 10;"/>
  <path d="M458.42,344.22c4.18-.74,20.09-.02,22.16,6.47,1.26,3.97,2.74,24.91-1.98,23.51-2.41-3.09-2.09-7.92-4.06-12.63-5.25-12.59-17.13-12.67-22.85-1.12-8.72,17.6-8.7,73.57,5.71,84.1,5.07,3.71,14.26,3.33,17.95-4.15,1.98-4.02,2.96-14.22,4.89-15.87,4.63-3.95,1.95,19.84.33,23.16-4.4,9-20.01,8.77-26.35,6.51-31.5-11.21-29.14-104.07,4.21-109.98Z" style="fill: #4a3728; stroke: #000; stroke-miterlimit: 10;"/>
  <path d="M249.03,446.61c6.63-1.82,4.18-22.72,9.83-22.59.86.02,1.34.56,1.6,1.88.41,2.05-.69,27.55-1.32,28.55l-43.02,1.24c-2.37.78-3.41-4.43-1.73-6.3,1.48-1.66,5.76.36,6.32-4.47.47-4.03-.21-10.25-.04-14.74.71-18.56,1.29-37.74.76-56.45-.09-3.34-.86-19.42-1.59-20.57-.51-.8-8.12-3.97-3.33-7.58,2.1-1.58,22.67-1.02,23.07,2.26-3.05,8.01-5.62.03-6.28,12.42-.72,13.58-.01,28.33.02,41.7.03,12.36-.92,29.06-.07,40.74.12,1.64.09,2.9,1.08,3.89,4.47-.86,10.44,1.17,14.69,0Z" style="fill: #4a3728; stroke: #000; stroke-miterlimit: 10;"/>
  <path d="M189.13,346.29v4.22s-6.45,2.3-6.45,2.3c-.63.7-.96,3.95-1.06,5.3-.9,12.22-.04,25.05-.06,37.09-.02,16.91-.69,34.72.77,51.25l17.22-1.23c2.95-5.22,2.32-22.51,8.13-19.95l.84,2.2-1.76,26.55c-15.14.07-30.41,2.1-45.51.49l.66-5.15c2.33-1.11,5.46.61,6.92-3.5-.39-7.11.67-14.44.84-21.22.46-18.02,1.02-45.69-.12-63.12-.17-2.59-.61-5.74-1.24-8.15-1.6-3.24-7.8.79-6.3-6.55.74-3.62,5.26-.56,7.27-.6,3.13-.06,18.56-3.29,19.85.06Z" style="fill: #4a3728; stroke: #000; stroke-miterlimit: 10;"/>
  <path d="M335.16,401.6c8.3,1.71,17.46,4.71,18.48,20.73,1.19,18.63-7.22,28.95-18.23,24.91l-.56-1.35c-.22-12.9-1.69-27.73-.83-40.54.1-1.55,0-3.06,1.14-3.76Z" style="fill: none; stroke: #000; stroke-miterlimit: 10;"/>
  <path d="M334.06,354.04c11.77-5.19,18.74,5.18,15.61,24.63-1.56,9.68-10.39,15.79-15.61,10.93v-35.56Z" style="fill: none; stroke: #000; stroke-miterlimit: 10;"/>
  <path d="M387.92,410.49c1.96-9.47,2.99-20.58,5.92-29.4,3.74-11.28,4.19-6.54,6.16,2.57,1.73,8,2.63,16.52,4.43,24.49l-.77,2.33h-15.74Z" style="fill: none; stroke: #000; stroke-miterlimit: 10;"/>
  <path d="M116.83,410.49c-.67-.86-.81-.95-.78-2.33.05-2.59,3.47-19.04,4.31-22.46.36-1.49,4.09-14.98,5.21-13.59l6.9,35.79c.3.91-.73,2.59-.95,2.59h-14.69Z" style="fill: none; stroke: #000; stroke-miterlimit: 10;"/>
</svg>